<svg xmlns="http://www.w3.org/2000/svg" width="22" height="22">
  <path fill="#323e43" d="M10.989 1.021c-5.514 0-10 4.486-10 10s4.486 10 10 10 10-4.486 10-10-4.486-10-10-10Z"/>
  <path fill="#cf3935" d="M10.989 1.855c4.746 0 8.661 3.626 9.12 8.254-.678.15-2.401.464-4.996.493-.214-2.098-1.971-3.746-4.124-3.746s-3.91 1.649-4.124 3.746c-2.595-.029-4.318-.342-4.996-.493.459-4.628 4.373-8.254 9.12-8.254Z"/>
  <circle cx="10.989" cy="11.021" r="3.333" fill="#455a64"/>
  <path fill="#fff" d="M10.989 20.188c-5.055 0-9.167-4.112-9.167-9.167 0-.023.003-.046.004-.069.793.169 2.509.451 5.038.479.209 2.103 1.968 3.757 4.125 3.757s3.916-1.654 4.125-3.757c2.529-.028 4.245-.31 5.038-.479 0 .023.004.046.004.069 0 5.055-4.112 9.167-9.167 9.167Z"/>
  <circle cx="10.989" cy="11.021" r="2.5" fill="#303c42"/>
  <circle cx="10.989" cy="11.021" r="1.667" fill="#f2f2f2"/>
  <path fill="#fff" d="M9.652 11.525c0-.919.747-1.667 1.667-1.667.477 0 .905.204 1.209.526-.251-.604-.845-1.03-1.539-1.03-.919 0-1.667.747-1.667 1.667 0 .442.176.842.458 1.14-.084-.202-.128-.418-.128-.637Z" opacity=".2" style="isolation:isolate"/>
  <path d="M18.361 10.396c.822-.1 1.413-.214 1.748-.288-.227-2.281-1.295-4.316-2.887-5.796.799 1.36 1.266 2.938 1.266 4.626 0 .497-.051.982-.127 1.458Zm1.791.556c-.412.088-1.078.205-1.971.303-1.03 3.934-4.606 6.85-8.858 6.85-2.414 0-4.606-.945-6.244-2.475 1.592 2.721 4.538 4.558 7.911 4.558 5.055 0 9.167-4.112 9.167-9.167 0-.023-.003-.046-.004-.069Z" opacity=".1" style="isolation:isolate"/>
</svg>
